<mxfile host="app.diagrams.net" agent="Mozilla/5.0 (Windows NT 10.0; Win64; x64) AppleWebKit/537.36 (KHTML, like Gecko) Chrome/135.0.0.0 Safari/537.36 OPR/120.0.0.0" version="28.1.0">
  <diagram name="Página-1" id="Qy8wxNQWwPsBeqdVv906">
    <mxGraphModel dx="1767" dy="814" grid="1" gridSize="10" guides="1" tooltips="1" connect="1" arrows="1" fold="1" page="1" pageScale="1" pageWidth="827" pageHeight="1169" math="0" shadow="0">
      <root>
        <mxCell id="0" />
        <mxCell id="1" parent="0" />
        <mxCell id="bJCYmrtRaFKwhMHYHO8L-1" value="&lt;b&gt;&lt;font style=&quot;font-size: 72px; color: rgb(0, 0, 0);&quot;&gt;PROCESO&lt;/font&gt;&lt;/b&gt;&lt;div&gt;&lt;b&gt;&lt;font style=&quot;color: rgb(0, 0, 0); font-size: 36px;&quot;&gt;Sistema de Registro&lt;/font&gt;&lt;/b&gt;&lt;/div&gt;" style="whiteSpace=wrap;html=1;aspect=fixed;fillColor=#FFFFFF;" parent="1" vertex="1">
          <mxGeometry x="304" y="120" width="600" height="600" as="geometry" />
        </mxCell>
        <mxCell id="bJCYmrtRaFKwhMHYHO8L-6" value="&lt;font face=&quot;Verdana&quot;&gt;Mensaje de Confirmación o error&lt;/font&gt;" style="text;html=1;align=center;verticalAlign=middle;whiteSpace=wrap;rounded=0;shadow=1;" parent="1" vertex="1">
          <mxGeometry x="940" y="200" width="150" height="30" as="geometry" />
        </mxCell>
        <mxCell id="bJCYmrtRaFKwhMHYHO8L-7" value="&lt;font face=&quot;Verdana&quot;&gt;Listado de Asignaturas Inscritas&lt;/font&gt;" style="text;html=1;align=center;verticalAlign=middle;whiteSpace=wrap;rounded=0;shadow=1;" parent="1" vertex="1">
          <mxGeometry x="940" y="390" width="140" height="10" as="geometry" />
        </mxCell>
        <mxCell id="bJCYmrtRaFKwhMHYHO8L-9" value="&lt;font face=&quot;Verdana&quot;&gt;Listado de Estudiantes&amp;nbsp; Inscritos&amp;nbsp;&lt;/font&gt;" style="text;html=1;align=center;verticalAlign=middle;whiteSpace=wrap;rounded=0;shadow=1;" parent="1" vertex="1">
          <mxGeometry x="940" y="565" width="140" height="20" as="geometry" />
        </mxCell>
        <mxCell id="bJCYmrtRaFKwhMHYHO8L-10" value="" style="endArrow=classic;html=1;rounded=0;shadow=1;" parent="1" edge="1">
          <mxGeometry width="50" height="50" relative="1" as="geometry">
            <mxPoint x="910" y="240" as="sourcePoint" />
            <mxPoint x="1140" y="240" as="targetPoint" />
          </mxGeometry>
        </mxCell>
        <mxCell id="bJCYmrtRaFKwhMHYHO8L-13" value="" style="endArrow=classic;html=1;rounded=0;shadow=1;" parent="1" edge="1">
          <mxGeometry width="50" height="50" relative="1" as="geometry">
            <mxPoint x="904" y="424.23" as="sourcePoint" />
            <mxPoint x="1134" y="424.23" as="targetPoint" />
          </mxGeometry>
        </mxCell>
        <mxCell id="bJCYmrtRaFKwhMHYHO8L-14" value="" style="endArrow=classic;html=1;rounded=0;shadow=1;" parent="1" edge="1">
          <mxGeometry width="50" height="50" relative="1" as="geometry">
            <mxPoint x="904" y="600" as="sourcePoint" />
            <mxPoint x="1134" y="600" as="targetPoint" />
          </mxGeometry>
        </mxCell>
        <mxCell id="bJCYmrtRaFKwhMHYHO8L-15" value="&lt;font face=&quot;Verdana&quot;&gt;Correo&lt;/font&gt;" style="text;html=1;align=center;verticalAlign=middle;whiteSpace=wrap;rounded=0;shadow=1;" parent="1" vertex="1">
          <mxGeometry x="140" y="170" width="150" height="30" as="geometry" />
        </mxCell>
        <mxCell id="bJCYmrtRaFKwhMHYHO8L-16" value="&lt;font face=&quot;Verdana&quot;&gt;Nombre&lt;/font&gt;" style="text;html=1;align=center;verticalAlign=middle;whiteSpace=wrap;rounded=0;shadow=1;" parent="1" vertex="1">
          <mxGeometry x="140" y="450" width="150" height="30" as="geometry" />
        </mxCell>
        <mxCell id="bJCYmrtRaFKwhMHYHO8L-17" value="&lt;font face=&quot;Verdana&quot;&gt;Dirección&lt;/font&gt;" style="text;html=1;align=center;verticalAlign=middle;whiteSpace=wrap;rounded=0;shadow=1;" parent="1" vertex="1">
          <mxGeometry x="140" y="370" width="150" height="30" as="geometry" />
        </mxCell>
        <mxCell id="bJCYmrtRaFKwhMHYHO8L-18" value="&lt;font face=&quot;Verdana&quot;&gt;Fecha de Nacimiento&lt;/font&gt;" style="text;html=1;align=center;verticalAlign=middle;whiteSpace=wrap;rounded=0;shadow=1;" parent="1" vertex="1">
          <mxGeometry x="140" y="410" width="150" height="30" as="geometry" />
        </mxCell>
        <mxCell id="bJCYmrtRaFKwhMHYHO8L-19" value="&lt;font face=&quot;Verdana&quot;&gt;Teléfono&lt;/font&gt;" style="text;html=1;align=center;verticalAlign=middle;whiteSpace=wrap;rounded=0;shadow=1;" parent="1" vertex="1">
          <mxGeometry x="140" y="650" width="150" height="30" as="geometry" />
        </mxCell>
        <mxCell id="bJCYmrtRaFKwhMHYHO8L-20" value="&lt;font face=&quot;Verdana&quot;&gt;Código_Asignatura&lt;/font&gt;" style="text;html=1;align=center;verticalAlign=middle;whiteSpace=wrap;rounded=0;shadow=1;" parent="1" vertex="1">
          <mxGeometry x="140" y="250" width="150" height="30" as="geometry" />
        </mxCell>
        <mxCell id="bJCYmrtRaFKwhMHYHO8L-23" value="&lt;font face=&quot;Verdana&quot;&gt;Nombre_Asignatura&lt;/font&gt;" style="text;html=1;align=center;verticalAlign=middle;whiteSpace=wrap;rounded=0;shadow=1;" parent="1" vertex="1">
          <mxGeometry x="140" y="490" width="150" height="30" as="geometry" />
        </mxCell>
        <mxCell id="bJCYmrtRaFKwhMHYHO8L-24" value="&lt;font face=&quot;Verdana&quot;&gt;Apellido&lt;/font&gt;" style="text;html=1;align=center;verticalAlign=middle;whiteSpace=wrap;rounded=0;shadow=1;" parent="1" vertex="1">
          <mxGeometry x="140" y="90" width="150" height="30" as="geometry" />
        </mxCell>
        <mxCell id="bJCYmrtRaFKwhMHYHO8L-25" value="&lt;font face=&quot;Verdana&quot;&gt;Numero_Documento&lt;/font&gt;" style="text;html=1;align=center;verticalAlign=middle;whiteSpace=wrap;rounded=0;shadow=1;" parent="1" vertex="1">
          <mxGeometry x="140" y="530" width="150" height="30" as="geometry" />
        </mxCell>
        <mxCell id="bJCYmrtRaFKwhMHYHO8L-26" value="&lt;font face=&quot;Verdana&quot;&gt;Tipo_Documento&lt;/font&gt;" style="text;html=1;align=center;verticalAlign=middle;whiteSpace=wrap;rounded=0;shadow=1;" parent="1" vertex="1">
          <mxGeometry x="140" y="690" width="150" height="30" as="geometry" />
        </mxCell>
        <mxCell id="bJCYmrtRaFKwhMHYHO8L-27" value="&lt;font face=&quot;Verdana&quot;&gt;Créditos&lt;/font&gt;" style="text;html=1;align=center;verticalAlign=middle;whiteSpace=wrap;rounded=0;shadow=1;" parent="1" vertex="1">
          <mxGeometry x="140" y="210" width="150" height="30" as="geometry" />
        </mxCell>
        <mxCell id="bJCYmrtRaFKwhMHYHO8L-28" value="&lt;font face=&quot;Verdana&quot;&gt;Cupo&lt;/font&gt;" style="text;html=1;align=center;verticalAlign=middle;whiteSpace=wrap;rounded=0;shadow=1;" parent="1" vertex="1">
          <mxGeometry x="140" y="130" width="150" height="30" as="geometry" />
        </mxCell>
        <mxCell id="bJCYmrtRaFKwhMHYHO8L-29" value="&lt;font face=&quot;Verdana&quot;&gt;Solicitud_Inscripción&lt;/font&gt;" style="text;html=1;align=center;verticalAlign=middle;whiteSpace=wrap;rounded=0;shadow=1;" parent="1" vertex="1">
          <mxGeometry x="140" y="610" width="150" height="30" as="geometry" />
        </mxCell>
        <mxCell id="bJCYmrtRaFKwhMHYHO8L-30" value="&lt;font face=&quot;Verdana&quot;&gt;Solicitud_Cancelación&lt;/font&gt;" style="text;html=1;align=center;verticalAlign=middle;whiteSpace=wrap;rounded=0;shadow=1;" parent="1" vertex="1">
          <mxGeometry x="140" y="570" width="150" height="30" as="geometry" />
        </mxCell>
        <mxCell id="bJCYmrtRaFKwhMHYHO8L-31" value="&lt;font face=&quot;Verdana&quot;&gt;Consulta_Estudiante&lt;/font&gt;" style="text;html=1;align=center;verticalAlign=middle;whiteSpace=wrap;rounded=0;shadow=1;" parent="1" vertex="1">
          <mxGeometry x="140" y="290" width="150" height="30" as="geometry" />
        </mxCell>
        <mxCell id="bJCYmrtRaFKwhMHYHO8L-32" value="&lt;font face=&quot;Verdana&quot;&gt;Consulta_Asignatura&lt;/font&gt;" style="text;html=1;align=center;verticalAlign=middle;whiteSpace=wrap;rounded=0;shadow=1;" parent="1" vertex="1">
          <mxGeometry x="140" y="330" width="150" height="30" as="geometry" />
        </mxCell>
        <mxCell id="bJCYmrtRaFKwhMHYHO8L-33" value="" style="endArrow=classic;html=1;rounded=0;shadow=1;" parent="1" edge="1">
          <mxGeometry width="50" height="50" relative="1" as="geometry">
            <mxPoint x="120" y="120" as="sourcePoint" />
            <mxPoint x="304" y="120" as="targetPoint" />
          </mxGeometry>
        </mxCell>
        <mxCell id="bJCYmrtRaFKwhMHYHO8L-34" value="" style="endArrow=classic;html=1;rounded=0;shadow=1;" parent="1" edge="1">
          <mxGeometry width="50" height="50" relative="1" as="geometry">
            <mxPoint x="120" y="160" as="sourcePoint" />
            <mxPoint x="304" y="160" as="targetPoint" />
          </mxGeometry>
        </mxCell>
        <mxCell id="bJCYmrtRaFKwhMHYHO8L-35" value="" style="endArrow=classic;html=1;rounded=0;shadow=1;" parent="1" edge="1">
          <mxGeometry width="50" height="50" relative="1" as="geometry">
            <mxPoint x="120" y="200" as="sourcePoint" />
            <mxPoint x="304" y="200" as="targetPoint" />
          </mxGeometry>
        </mxCell>
        <mxCell id="bJCYmrtRaFKwhMHYHO8L-36" value="" style="endArrow=classic;html=1;rounded=0;shadow=1;" parent="1" edge="1">
          <mxGeometry width="50" height="50" relative="1" as="geometry">
            <mxPoint x="120" y="240" as="sourcePoint" />
            <mxPoint x="304" y="240" as="targetPoint" />
          </mxGeometry>
        </mxCell>
        <mxCell id="bJCYmrtRaFKwhMHYHO8L-37" value="" style="endArrow=classic;html=1;rounded=0;shadow=1;" parent="1" edge="1">
          <mxGeometry width="50" height="50" relative="1" as="geometry">
            <mxPoint x="120" y="280" as="sourcePoint" />
            <mxPoint x="304" y="280" as="targetPoint" />
          </mxGeometry>
        </mxCell>
        <mxCell id="bJCYmrtRaFKwhMHYHO8L-38" value="" style="endArrow=classic;html=1;rounded=0;shadow=1;" parent="1" edge="1">
          <mxGeometry width="50" height="50" relative="1" as="geometry">
            <mxPoint x="120" y="320" as="sourcePoint" />
            <mxPoint x="304" y="320" as="targetPoint" />
          </mxGeometry>
        </mxCell>
        <mxCell id="bJCYmrtRaFKwhMHYHO8L-39" value="" style="endArrow=classic;html=1;rounded=0;shadow=1;" parent="1" edge="1">
          <mxGeometry width="50" height="50" relative="1" as="geometry">
            <mxPoint x="120" y="359" as="sourcePoint" />
            <mxPoint x="304" y="359" as="targetPoint" />
          </mxGeometry>
        </mxCell>
        <mxCell id="bJCYmrtRaFKwhMHYHO8L-40" value="" style="endArrow=classic;html=1;rounded=0;shadow=1;" parent="1" edge="1">
          <mxGeometry width="50" height="50" relative="1" as="geometry">
            <mxPoint x="120" y="399" as="sourcePoint" />
            <mxPoint x="304" y="399" as="targetPoint" />
          </mxGeometry>
        </mxCell>
        <mxCell id="bJCYmrtRaFKwhMHYHO8L-41" value="" style="endArrow=classic;html=1;rounded=0;shadow=1;" parent="1" edge="1">
          <mxGeometry width="50" height="50" relative="1" as="geometry">
            <mxPoint x="120" y="440" as="sourcePoint" />
            <mxPoint x="304" y="440" as="targetPoint" />
          </mxGeometry>
        </mxCell>
        <mxCell id="bJCYmrtRaFKwhMHYHO8L-42" value="" style="endArrow=classic;html=1;rounded=0;shadow=1;" parent="1" edge="1">
          <mxGeometry width="50" height="50" relative="1" as="geometry">
            <mxPoint x="120" y="480" as="sourcePoint" />
            <mxPoint x="304" y="480" as="targetPoint" />
          </mxGeometry>
        </mxCell>
        <mxCell id="bJCYmrtRaFKwhMHYHO8L-43" value="" style="endArrow=classic;html=1;rounded=0;shadow=1;" parent="1" edge="1">
          <mxGeometry width="50" height="50" relative="1" as="geometry">
            <mxPoint x="120" y="520" as="sourcePoint" />
            <mxPoint x="304" y="520" as="targetPoint" />
          </mxGeometry>
        </mxCell>
        <mxCell id="bJCYmrtRaFKwhMHYHO8L-44" value="" style="endArrow=classic;html=1;rounded=0;shadow=1;" parent="1" edge="1">
          <mxGeometry width="50" height="50" relative="1" as="geometry">
            <mxPoint x="120" y="560" as="sourcePoint" />
            <mxPoint x="304" y="560" as="targetPoint" />
          </mxGeometry>
        </mxCell>
        <mxCell id="bJCYmrtRaFKwhMHYHO8L-45" value="" style="endArrow=classic;html=1;rounded=0;shadow=1;" parent="1" edge="1">
          <mxGeometry width="50" height="50" relative="1" as="geometry">
            <mxPoint x="120" y="600" as="sourcePoint" />
            <mxPoint x="304" y="600" as="targetPoint" />
          </mxGeometry>
        </mxCell>
        <mxCell id="bJCYmrtRaFKwhMHYHO8L-46" value="" style="endArrow=classic;html=1;rounded=0;shadow=1;" parent="1" edge="1">
          <mxGeometry width="50" height="50" relative="1" as="geometry">
            <mxPoint x="120" y="640" as="sourcePoint" />
            <mxPoint x="304" y="640" as="targetPoint" />
          </mxGeometry>
        </mxCell>
        <mxCell id="bJCYmrtRaFKwhMHYHO8L-48" value="" style="endArrow=classic;html=1;rounded=0;shadow=1;" parent="1" edge="1">
          <mxGeometry width="50" height="50" relative="1" as="geometry">
            <mxPoint x="120" y="680" as="sourcePoint" />
            <mxPoint x="304" y="680" as="targetPoint" />
          </mxGeometry>
        </mxCell>
        <mxCell id="bJCYmrtRaFKwhMHYHO8L-49" value="" style="endArrow=classic;html=1;rounded=0;shadow=1;" parent="1" edge="1">
          <mxGeometry width="50" height="50" relative="1" as="geometry">
            <mxPoint x="120" y="720" as="sourcePoint" />
            <mxPoint x="304" y="720" as="targetPoint" />
          </mxGeometry>
        </mxCell>
      </root>
    </mxGraphModel>
  </diagram>
</mxfile>
